<svg xmlns="http://www.w3.org/2000/svg"  viewBox="0 0 100 100" width="100px" height="100px"><path fill="#c7ede6" d="M87.215,56.71C88.35,54.555,89,52.105,89,49.5c0-6.621-4.159-12.257-10.001-14.478 C78.999,35.015,79,35.008,79,35c0-11.598-9.402-21-21-21c-9.784,0-17.981,6.701-20.313,15.757C36.211,29.272,34.638,29,33,29 c-7.692,0-14.023,5.793-14.89,13.252C12.906,43.353,9,47.969,9,53.5C9,59.851,14.149,65,20.5,65c0.177,0,0.352-0.012,0.526-0.022 C21.022,65.153,21,65.324,21,65.5C21,76.822,30.178,86,41.5,86c6.437,0,12.175-2.972,15.934-7.614C59.612,80.611,62.64,82,66,82 c4.65,0,8.674-2.65,10.666-6.518C77.718,75.817,78.837,76,80,76c6.075,0,11-4.925,11-11C91,61.689,89.53,58.727,87.215,56.71z"/><path fill="#fff" d="M16.5,50h-10C6.224,50,6,49.776,6,49.5S6.224,49,6.5,49h10c0.276,0,0.5,0.224,0.5,0.5 S16.777,50,16.5,50z"/><path fill="#fff" d="M19.5,50h-1c-0.276,0-0.5-0.224-0.5-0.5s0.224-0.5,0.5-0.5h1c0.276,0,0.5,0.224,0.5,0.5 S19.777,50,19.5,50z"/><path fill="#fff" d="M24.491,52H15.5c-0.276,0-0.5-0.224-0.5-0.5s0.224-0.5,0.5-0.5h8.991c0.276,0,0.5,0.224,0.5,0.5 S24.767,52,24.491,52z"/><path fill="#fff" d="M13.5,52h-1c-0.276,0-0.5-0.224-0.5-0.5s0.224-0.5,0.5-0.5h1c0.276,0,0.5,0.224,0.5,0.5 S13.777,52,13.5,52z"/><path fill="#fff" d="M10.5,52h-2C8.224,52,8,51.776,8,51.5S8.224,51,8.5,51h2c0.276,0,0.5,0.224,0.5,0.5 S10.777,52,10.5,52z"/><path fill="#fff" d="M16.5,54h-2c-0.276,0-0.5-0.224-0.5-0.5s0.224-0.5,0.5-0.5h2c0.276,0,0.5,0.224,0.5,0.5 S16.776,54,16.5,54z"/><path fill="#fff" d="M19.5,45c-0.177,0-0.823,0-1,0c-0.276,0-0.5,0.224-0.5,0.5c0,0.276,0.224,0.5,0.5,0.5 c0.177,0,0.823,0,1,0c0.276,0,0.5-0.224,0.5-0.5C20,45.224,19.776,45,19.5,45z"/><path fill="#fff" d="M19.5,47c-0.177,0-4.823,0-5,0c-0.276,0-0.5,0.224-0.5,0.5c0,0.276,0.224,0.5,0.5,0.5 c0.177,0,4.823,0,5,0c0.276,0,0.5-0.224,0.5-0.5C20,47.224,19.776,47,19.5,47z"/><path fill="#fff" d="M24.5,49c-0.177,0-2.823,0-3,0c-0.276,0-0.5,0.224-0.5,0.5c0,0.276,0.224,0.5,0.5,0.5 c0.177,0,2.823,0,3,0c0.276,0,0.5-0.224,0.5-0.5C25,49.224,24.776,49,24.5,49z"/><g><path fill="#fff" d="M87.5,67h-10c-0.276,0-0.5-0.224-0.5-0.5s0.224-0.5,0.5-0.5h10c0.276,0,0.5,0.224,0.5,0.5 S87.776,67,87.5,67z"/><path fill="#fff" d="M91.5,67h-2c-0.276,0-0.5-0.224-0.5-0.5s0.224-0.5,0.5-0.5h2c0.276,0,0.5,0.224,0.5,0.5 S91.776,67,91.5,67z"/><path fill="#fff" d="M96.5,69h-10c-0.276,0-0.5-0.224-0.5-0.5s0.224-0.5,0.5-0.5h10c0.276,0,0.5,0.224,0.5,0.5 S96.777,69,96.5,69z"/><path fill="#fff" d="M84.5,69h-1c-0.276,0-0.5-0.224-0.5-0.5s0.224-0.5,0.5-0.5h1c0.276,0,0.5,0.224,0.5,0.5 S84.776,69,84.5,69z"/><path fill="#fff" d="M81.47,69H79.5c-0.276,0-0.5-0.224-0.5-0.5s0.224-0.5,0.5-0.5h1.97c0.276,0,0.5,0.224,0.5,0.5 S81.746,69,81.47,69z"/><path fill="#fff" d="M90.5,65h-5c-0.276,0-0.5-0.224-0.5-0.5s0.224-0.5,0.5-0.5h5c0.276,0,0.5,0.224,0.5,0.5 S90.777,65,90.5,65z"/><path fill="#fff" d="M87.5,71h-2c-0.276,0-0.5-0.224-0.5-0.5s0.224-0.5,0.5-0.5h2c0.276,0,0.5,0.224,0.5,0.5 S87.776,71,87.5,71z"/></g><g><path fill="#fdfcef" d="M37.375,37.625v0.5h3v-0.5c0,0,4.242,0,5.5,0c2.485,0,4.5-2.015,4.5-4.5 c0-2.333-1.782-4.229-4.055-4.455c0.022-0.181,0.055-0.358,0.055-0.545c0-2.485-2.015-4.5-4.5-4.5 c-1.438,0-2.703,0.686-3.527,1.736c-0.14-2.636-2.302-4.736-4.973-4.736c-2.761,0-5,2.239-5,5c0,0.446,0.077,0.87,0.187,1.282 c-0.642-0.777-1.6-1.282-2.687-1.282c-1.781,0-3.234,1.335-3.455,3.055c-0.181-0.022-0.358-0.055-0.545-0.055 c-2.485,0-4.5,2.015-4.5,4.5s2.015,4.5,4.5,4.5s9.5,0,9.5,0H37.375z"/><path fill="#472b29" d="M33.375,20.125c-3.033,0-5.5,2.467-5.5,5.5c0,0.016,0,0.031,0,0.047 c-0.602-0.354-1.29-0.547-2-0.547c-1.831,0-3.411,1.261-3.858,3.005c-0.047-0.003-0.094-0.005-0.142-0.005c-2.757,0-5,2.243-5,5 s2.243,5,5,5h15.5c0.276,0,0.5-0.224,0.5-0.5s-0.224-0.5-0.5-0.5h-15.5c-2.206,0-4-1.794-4-4s1.794-4,4-4 c0.117,0,0.23,0.017,0.343,0.032l0.141,0.019c0.021,0.003,0.041,0.004,0.062,0.004c0.246,0,0.462-0.185,0.495-0.437 c0.191-1.493,1.463-2.618,2.959-2.618c0.885,0,1.723,0.401,2.301,1.1c0.098,0.118,0.241,0.182,0.386,0.182 c0.078,0,0.156-0.018,0.228-0.056c0.209-0.107,0.314-0.346,0.254-0.573c-0.116-0.436-0.17-0.802-0.17-1.153 c0-2.481,2.019-4.5,4.5-4.5c2.381,0,4.347,1.872,4.474,4.263c0.011,0.208,0.15,0.387,0.349,0.45 c0.05,0.016,0.101,0.024,0.152,0.024c0.15,0,0.296-0.069,0.392-0.192c0.771-0.981,1.913-1.544,3.133-1.544c2.206,0,4,1.794,4,4 c0,0.117-0.017,0.23-0.032,0.343l-0.019,0.141c-0.016,0.134,0.022,0.268,0.106,0.373c0.084,0.105,0.207,0.172,0.34,0.185 c2.055,0.205,3.604,1.906,3.604,3.958c0,2.206-1.794,4-4,4h-5.5c-0.276,0-0.5,0.224-0.5,0.5s0.224,0.5,0.5,0.5h5.5 c2.757,0,5-2.243,5-5c0-2.397-1.689-4.413-4.003-4.877c0.002-0.041,0.003-0.082,0.003-0.123c0-2.757-2.243-5-5-5 c-1.176,0-2.293,0.416-3.183,1.164C38.094,21.885,35.93,20.125,33.375,20.125L33.375,20.125z"/><path fill="#472b29" d="M31.875,27.125c-1.403,0-2.609,0.999-2.913,2.341c-0.367-0.222-0.786-0.341-1.212-0.341 c-1.202,0-2.198,0.897-2.353,2.068c-0.203-0.045-0.396-0.068-0.585-0.068c-1.529,0-2.811,1.2-2.918,2.732 c-0.009,0.138,0.094,0.257,0.232,0.267c0.006,0,0.012,0,0.018,0c0.13,0,0.24-0.101,0.249-0.232 c0.089-1.271,1.151-2.268,2.419-2.268c0.229,0,0.47,0.042,0.738,0.127c0.022,0.007,0.045,0.01,0.067,0.01 c0.055,0,0.11-0.02,0.156-0.054c0.064-0.047,0.102-0.129,0.102-0.209c0-1.034,0.841-1.875,1.875-1.875 c0.447,0,0.885,0.168,1.231,0.473c0.047,0.041,0.106,0.063,0.165,0.063c0.032,0,0.063-0.006,0.093-0.019 c0.088-0.035,0.148-0.117,0.155-0.212c0.102-1.292,1.191-2.305,2.479-2.305c0.208,0,0.425,0.034,0.682,0.107 c0.023,0.007,0.047,0.01,0.07,0.01c0.109,0,0.207-0.073,0.239-0.182c0.038-0.133-0.039-0.271-0.172-0.309 C32.392,27.165,32.131,27.125,31.875,27.125L31.875,27.125z"/><path fill="#472b29" d="M45.758,28.625c-1.326,0-2.508,0.897-2.874,2.182c-0.038,0.133,0.039,0.271,0.172,0.309 c0.023,0.007,0.046,0.01,0.068,0.01c0.109,0,0.209-0.072,0.24-0.182c0.305-1.071,1.289-1.818,2.393-1.818 c0.117,0,0.23,0.014,0.342,0.029c0.012,0.002,0.023,0.003,0.035,0.003c0.121,0,0.229-0.092,0.246-0.217 c0.019-0.137-0.077-0.263-0.214-0.281C46.033,28.641,45.897,28.625,45.758,28.625L45.758,28.625z"/></g><g><path fill="#a2b3cb" d="M65.643,57l0-13.392c0-4.815-3.178-13.333-8.358-15.3C45.975,24.012,35,31.919,35,41l0,34.45 c0,1.107,0.783,2.061,1.948,2.568c6.852,2.982,20.748,3.143,26.747,1c1.202-0.429,1.948-1.462,1.948-2.568l0-3.45 c0-1-1.179-2-3.536-2v-6.891c1.588-0.174,3.133-0.421,4.62-0.777C67.475,63.153,68,62.586,68,61.927L68,57H65.643z"/><path fill="#472b29" d="M50.321,28.4c2.165,0,4.341,0.41,6.467,1.217c4.529,1.72,7.455,5.642,7.455,9.991l0,17.392v1.4h1.4 H66.6l0,4.257c-0.028,0.026-0.092,0.069-0.199,0.095c-1.341,0.321-2.795,0.566-4.447,0.747l-1.247,0.137v1.255V71v1.4h1.4 c1.457,0,2.078,0.461,2.136,0.6l0,3.45c0,0.538-0.4,1.029-1.019,1.25c-2.429,0.867-6.385,1.365-10.854,1.365 c-5.954,0-11.511-0.871-14.864-2.33c-0.535-0.233-1.107-0.692-1.107-1.285l0-35.45c0-3.055,1.418-5.94,3.993-8.125 C43.034,29.634,46.56,28.4,50.321,28.4 M50.321,27C41.859,27,35,32.82,35,40l0,35.45c0,1.106,0.783,2.062,1.948,2.568 c3.816,1.661,9.817,2.446,15.422,2.446c4.459,0,8.667-0.497,11.325-1.446c1.202-0.429,1.948-1.462,1.948-2.568l0-3.45 c0-1-1.179-2-3.536-2v-6.109c1.588-0.174,3.133-0.421,4.62-0.777C67.475,63.935,68,63.367,68,62.708L68,57h-2.357l0-17.392 c0-4.815-3.178-9.333-8.358-11.3C54.917,27.408,52.563,27,50.321,27L50.321,27z"/><path fill="#a2b3cb" d="M73.72,49.581C73.278,47.418,72.329,46.591,71,46l-6-2h-0.61c-2.164,0.618-5.123,1-8.39,1 s-6.226-0.382-8.39-1h-0.426C44.873,44,43,45.873,43,48.184v5.633c0,2.311,1.25,4.892,6.542,5.892l0.001,0 C50.004,59.892,50.504,60,51.031,60h18.938C72.195,60,74,58.195,74,55.969v-4.938C74,50.518,73.895,50.032,73.72,49.581z"/><path fill="#c5def0" d="M69.659,60H50.612c-2.294,0-4.154-1.86-4.154-4.154v-5.317c0-2.294,1.86-4.154,4.154-4.154h19.046 c2.294,0,4.154,1.86,4.154,4.154v5.317C73.813,58.14,71.953,60,69.659,60z"/><path fill="#472b29" d="M46.5,53.75c-0.138,0-0.25-0.112-0.25-0.25v-2.679c0-2.544,1.92-4.613,4.281-4.613 c0.138,0,0.25,0.112,0.25,0.25s-0.112,0.25-0.25,0.25c-2.085,0-3.781,1.845-3.781,4.113V53.5 C46.75,53.638,46.638,53.75,46.5,53.75z"/><path fill="#472b29" d="M69.409,60.25H50.486c-2.359,0-4.278-1.996-4.278-4.449c0-0.138,0.112-0.25,0.25-0.25 s0.25,0.112,0.25,0.25c0,2.177,1.695,3.949,3.778,3.949h18.923c2.083,0,3.778-1.772,3.778-3.949v-5.143 c0-2.177-1.695-3.949-3.778-3.949h-7.421c-0.138,0-0.25-0.112-0.25-0.25s0.112-0.25,0.25-0.25h7.421 c2.359,0,4.278,1.996,4.278,4.449v5.143C73.688,58.254,71.768,60.25,69.409,60.25z"/><path fill="#472b29" d="M60.5,46.75h-7c-0.138,0-0.25-0.112-0.25-0.25s0.112-0.25,0.25-0.25h7 c0.138,0,0.25,0.112,0.25,0.25S60.638,46.75,60.5,46.75z"/><path fill="#f5e690" d="M46.615,73.875c5.508,0.969,10.6,1.15,15.385-0.219v-9.587c-5.581,0.508-10.246,0.431-15.6-0.382 c-2.646-0.156-4.369,1.691-4.369,4.813L42,68.531C42,71.44,43.354,73.281,46.615,73.875z"/><path fill="#472b29" d="M54.53,75.14c-2.434,0-5.076-0.258-8.001-0.772l-0.003,0c-3.382-0.616-5.026-2.525-5.026-5.836 l0.033-0.239c0.04-1.698,0.568-3.072,1.535-3.982c0.862-0.813,2.021-1.202,3.361-1.122c5.207,0.788,9.837,0.901,15.525,0.383 l0.545-0.05v10.511l-0.362,0.104C59.798,74.806,57.299,75.14,54.53,75.14z M46.703,73.383c5.925,1.042,10.642,1.009,14.797-0.107 v-8.661c-5.527,0.47-10.097,0.337-15.175-0.433c-1.005-0.06-1.914,0.237-2.571,0.856c-0.8,0.754-1.223,1.951-1.223,3.462 l-0.028,0.234C42.566,71.393,43.906,72.873,46.703,73.383z"/><path fill="#a2b3cb" d="M51,28.583c1.508,0,2.878-0.169,3.932-0.444C54.97,27.992,55,27.842,55,27.688 C55,26.203,53.209,25,51,25s-4,1.203-4,2.688c0,0.155,0.03,0.304,0.068,0.452C48.122,28.414,49.492,28.583,51,28.583z"/><path fill="#472b29" d="M51,29.083c-1.478,0-2.919-0.163-4.058-0.459l-0.286-0.074l-0.073-0.286 c-0.042-0.162-0.083-0.357-0.083-0.575c0-1.787,1.977-3.188,4.5-3.188s4.5,1.4,4.5,3.188c0,0.219-0.042,0.414-0.083,0.575 l-0.073,0.286l-0.286,0.074C53.919,28.92,52.478,29.083,51,29.083z M47.501,27.731c2.015,0.456,4.982,0.456,6.997,0 c0.001-0.015,0.001-0.029,0.001-0.043c0-1.186-1.603-2.188-3.5-2.188s-3.5,1.002-3.5,2.188C47.5,27.702,47.5,27.716,47.501,27.731 z"/><path fill="#a2b3cb" d="M51.719,15.438h-1.438l-0.719,10.225c0.996,0.351,1.958,0.382,2.875,0L51.719,15.438z"/><path fill="#472b29" d="M51.06,26.437c-0.536,0-1.092-0.101-1.664-0.302l-0.359-0.127l0.778-11.07h2.37l0.776,11.049 l-0.332,0.138C52.129,26.333,51.605,26.437,51.06,26.437z M50.089,25.303c0.652,0.176,1.254,0.18,1.823,0.015l-0.66-9.381h-0.505 L50.089,25.303z"/><circle cx="51" cy="15" r="2.5" fill="#a2b3cb"/><path fill="#472b29" d="M51,18c-1.654,0-3-1.346-3-3s1.346-3,3-3s3,1.346,3,3S52.654,18,51,18z M51,13 c-1.103,0-2,0.897-2,2s0.897,2,2,2s2-0.897,2-2S52.103,13,51,13z"/><path fill="#472b29" d="M69.542,58.5H50.458c-1.082,0-1.958-0.877-1.958-1.958v-6.083c0-1.082,0.877-1.958,1.958-1.958 h19.083c1.082,0,1.958,0.877,1.958,1.958v6.083C71.5,57.623,70.623,58.5,69.542,58.5z"/><path fill="#472b29" d="M69.542,58.75H50.458c-1.218,0-2.208-0.991-2.208-2.208v-6.083c0-1.218,0.991-2.208,2.208-2.208 h19.083c1.218,0,2.208,0.991,2.208,2.208v6.083C71.75,57.759,70.759,58.75,69.542,58.75z M50.458,48.75 c-0.942,0-1.708,0.766-1.708,1.708v6.083c0,0.942,0.767,1.708,1.708,1.708h19.083c0.942,0,1.708-0.766,1.708-1.708v-6.083 c0-0.942-0.767-1.708-1.708-1.708H50.458z"/><path fill="#f5e690" d="M66.656,49h-6.312C58.928,49.995,58,51.638,58,53.5s0.928,3.505,2.344,4.5h6.312 C68.072,57.005,69,55.362,69,53.5S68.072,49.995,66.656,49z"/><path fill="#472b29" d="M66.735,58.25h-6.471L60.2,58.205c-1.534-1.078-2.45-2.837-2.45-4.705s0.916-3.626,2.45-4.705 l0.064-0.045h6.471l0.064,0.045c1.534,1.078,2.45,2.837,2.45,4.705s-0.916,3.626-2.45,4.705L66.735,58.25z M60.424,57.75h6.152 c1.363-0.988,2.174-2.571,2.174-4.25s-0.811-3.262-2.174-4.25h-6.152c-1.363,0.988-2.174,2.571-2.174,4.25 S59.061,56.762,60.424,57.75z"/><path fill="#f5e690" d="M49,50.958v5.083C49,57.123,49.877,58,50.958,58h7.225C59.306,56.832,60,55.248,60,53.5 s-0.694-3.332-1.816-4.5h-7.225C49.877,49,49,49.877,49,50.958z"/><path fill="#472b29" d="M58.29,58.25h-7.332c-1.218,0-2.208-0.991-2.208-2.208v-5.083c0-1.218,0.991-2.208,2.208-2.208 h7.332l0.074,0.077c1.216,1.266,1.886,2.925,1.886,4.673s-0.67,3.408-1.886,4.673L58.29,58.25z M50.958,49.25 c-0.942,0-1.708,0.766-1.708,1.708v5.083c0,0.942,0.767,1.708,1.708,1.708h7.117c1.081-1.162,1.674-2.667,1.674-4.25 s-0.594-3.088-1.674-4.25H50.958z"/><path fill="#472b29" d="M69.469,61h-18.01c-0.49,0-2.033-0.101-2.601-0.328C43.206,59.615,42,56.629,42,54.316v-6.633 C42,45.101,44.101,43,46.684,43h0.426c0.046,0,0.093,0.007,0.137,0.019C49.461,43.652,52.392,44,55.5,44s6.039-0.348,8.253-0.981 C63.798,43.007,63.844,43,63.891,43H64.5c0.054,0,0.107,0.009,0.158,0.026l6,2c0.015,0.005,0.03,0.011,0.045,0.018 C72.238,45.726,74,46.966,74,50.531v5.938C74,58.967,71.967,61,69.469,61z M46.684,44C44.652,44,43,45.652,43,47.684v6.633 c0,2.814,2.064,4.632,6.134,5.401C49.57,59.88,50.86,60,51.458,60h18.01C71.416,60,73,58.416,73,56.469v-5.938 c0-2.956-1.352-3.969-2.681-4.565L64.419,44H63.96c-2.292,0.645-5.293,1-8.46,1s-6.167-0.355-8.46-1H46.684z"/><rect width="2" height="2" x="52" y="52" fill="#472b29"/><rect width="2" height="2" x="62" y="52" fill="#472b29"/><path fill="#472b29" d="M54.412,68.074c-3.647,0-8.017-0.395-11.813-1.84c-0.129-0.049-0.194-0.194-0.145-0.323 c0.05-0.129,0.194-0.193,0.323-0.145c8.212,3.125,19.194,1.256,19.306,1.237c0.132-0.022,0.265,0.067,0.289,0.203 c0.024,0.136-0.067,0.266-0.203,0.29C62.107,67.507,58.778,68.074,54.412,68.074z"/><path fill="#472b29" d="M54.238,71.199c-3.728,0-8.195-0.395-12.076-1.84c-0.129-0.048-0.195-0.192-0.147-0.322 c0.048-0.129,0.193-0.196,0.322-0.147c8.402,3.128,19.632,1.257,19.746,1.238c0.131-0.022,0.265,0.068,0.289,0.204 c0.023,0.136-0.068,0.265-0.205,0.289C62.105,70.632,58.702,71.199,54.238,71.199z"/><path fill="#472b29" d="M58.5,74.75c-0.138,0-0.25-0.112-0.25-0.25v-10c0-0.138,0.112-0.25,0.25-0.25s0.25,0.112,0.25,0.25 v10C58.75,74.638,58.638,74.75,58.5,74.75z"/><g><path fill="#472b29" d="M52.5,74.75c-0.138,0-0.25-0.112-0.25-0.25v-10c0-0.138,0.112-0.25,0.25-0.25s0.25,0.112,0.25,0.25 v10C52.75,74.638,52.638,74.75,52.5,74.75z"/></g><g><path fill="#472b29" d="M46.5,73.75c-0.138,0-0.25-0.112-0.25-0.25v-10c0-0.138,0.112-0.25,0.25-0.25s0.25,0.112,0.25,0.25 v10C46.75,73.638,46.638,73.75,46.5,73.75z"/></g><g><path fill="#472b29" d="M38.127,41.75c-0.136,0-0.248-0.109-0.25-0.246c-0.054-3.125,1.1-5.97,3.337-8.226 c0.098-0.098,0.256-0.099,0.354-0.001c0.098,0.097,0.099,0.255,0.002,0.354c-2.17,2.189-3.245,4.835-3.192,7.865 c0.002,0.138-0.107,0.252-0.246,0.254C38.13,41.75,38.128,41.75,38.127,41.75z"/></g><g><path fill="#472b29" d="M42.876,32.416c-0.076,0-0.151-0.035-0.2-0.1c-0.083-0.111-0.06-0.267,0.05-0.35 c1.257-0.94,2.26-1.366,2.302-1.384c0.125-0.053,0.273,0.006,0.327,0.134c0.053,0.127-0.006,0.274-0.133,0.327 c-0.01,0.004-0.993,0.423-2.196,1.323C42.981,32.4,42.928,32.416,42.876,32.416z"/></g><g><polygon fill="#472b29" points="55.594,49.031 59.5,51.5 63.313,49"/></g><g><path fill="#472b29" d="M38.167,74.167c-0.138,0-0.25-0.112-0.25-0.25V56.25c0-0.138,0.112-0.25,0.25-0.25 s0.25,0.112,0.25,0.25v17.667C38.417,74.055,38.305,74.167,38.167,74.167z"/></g><g><path fill="#472b29" d="M38.167,53.667c-0.138,0-0.25-0.112-0.25-0.25V43.25c0-0.138,0.112-0.25,0.25-0.25 s0.25,0.112,0.25,0.25v10.167C38.417,53.555,38.305,53.667,38.167,53.667z"/></g></g><g><path fill="#fdfcef" d="M76.375,40.5c0,0,1.567,0,3.5,0s3.5-1.567,3.5-3.5c0-1.781-1.335-3.234-3.055-3.455 c0.028-0.179,0.055-0.358,0.055-0.545c0-1.933-1.567-3.5-3.5-3.5c-1.032,0-1.95,0.455-2.59,1.165 c-0.384-1.808-1.987-3.165-3.91-3.165c-2.209,0-4,1.791-4,4c0,0.191,0.03,0.374,0.056,0.558c-0.428-0.344-0.965-0.558-1.556-0.558 c-1.228,0-2.245,0.887-2.455,2.055c-0.179-0.028-0.358-0.055-0.545-0.055c-1.933,0-3.5,1.567-3.5,3.5s1.567,3.5,3.5,3.5 s7.5,0,7.5,0V41h7V40.5z"/><path fill="#472b29" d="M78.125,36c-0.138,0-0.25-0.112-0.25-0.25c0-1.223,0.995-2.218,2.218-2.218 c0.034,0.009,0.737-0.001,1.244,0.136c0.133,0.036,0.212,0.173,0.176,0.306c-0.036,0.134-0.173,0.213-0.306,0.176 c-0.444-0.12-1.1-0.12-1.113-0.118c-0.948,0-1.719,0.771-1.719,1.718C78.375,35.888,78.263,36,78.125,36z"/><circle cx="71.375" cy="40.5" r=".5" fill="#472b29"/><path fill="#472b29" d="M79.875,41h-3.5c-0.276,0-0.5-0.224-0.5-0.5s0.224-0.5,0.5-0.5h3.5c1.654,0,3-1.346,3-3 c0-1.496-1.125-2.768-2.618-2.959c-0.134-0.018-0.255-0.088-0.336-0.196s-0.115-0.244-0.094-0.377 c0.024-0.153,0.049-0.308,0.049-0.468c0-1.654-1.346-3-3-3c-0.85,0-1.638,0.355-2.219,1c-0.125,0.139-0.321,0.198-0.5,0.148 c-0.182-0.049-0.321-0.195-0.36-0.379C73.455,29.165,72.016,28,70.375,28c-1.93,0-3.5,1.57-3.5,3.5 c0,0.143,0.021,0.28,0.041,0.418c0.029,0.203-0.063,0.438-0.242,0.54c-0.179,0.102-0.396,0.118-0.556-0.01 C65.753,32.155,65.324,32,64.875,32c-0.966,0-1.792,0.691-1.963,1.644c-0.048,0.267-0.296,0.446-0.569,0.405 C62.189,34.025,62.035,34,61.875,34c-1.654,0-3,1.346-3,3s1.346,3,3,3h7.5c0.276,0,0.5,0.224,0.5,0.5s-0.224,0.5-0.5,0.5h-7.5 c-2.206,0-4-1.794-4-4s1.794-4,4-4c0.059,0,0.116,0.002,0.174,0.006C62.463,31.82,63.586,31,64.875,31 c0.349,0,0.689,0.061,1.011,0.18c0.165-2.333,2.115-4.18,4.489-4.18c1.831,0,3.466,1.127,4.153,2.774 C75.208,29.276,76.03,29,76.875,29c2.206,0,4,1.794,4,4c0,0.048-0.001,0.095-0.004,0.142c1.743,0.448,3.004,2.027,3.004,3.858 C83.875,39.206,82.081,41,79.875,41z"/><path fill="#472b29" d="M74.375,40c-0.159,0-0.841,0-1,0c-0.276,0-0.5,0.224-0.5,0.5c0,0.276,0.224,0.5,0.5,0.5 c0.159,0,0.841,0,1,0c0.276,0,0.5-0.224,0.5-0.5C74.875,40.224,74.651,40,74.375,40z"/></g></svg>