<svg xmlns="http://www.w3.org/2000/svg"  viewBox="0 0 64 64" width="96px" height="96px"><linearGradient id="jtMFEMUKygUb9qFc8ByC4a" x1="32" x2="32" y1="4.702" y2="6.979" gradientUnits="userSpaceOnUse"><stop offset="0" stop-color="#6dc7ff"/><stop offset="1" stop-color="#e6abff"/></linearGradient><path fill="url(#jtMFEMUKygUb9qFc8ByC4a)" d="M36.5,8h-9V6c0-1.105,0.895-2,2-2h5c1.105,0,2,0.895,2,2V8z"/><linearGradient id="jtMFEMUKygUb9qFc8ByC4b" x1="35" x2="35" y1="30.043" y2="32.951" gradientUnits="userSpaceOnUse"><stop offset="0" stop-color="#6dc7ff"/><stop offset="1" stop-color="#e6abff"/></linearGradient><circle cx="35" cy="32" r="2" fill="url(#jtMFEMUKygUb9qFc8ByC4b)"/><linearGradient id="jtMFEMUKygUb9qFc8ByC4c" x1="46" x2="46" y1="30.043" y2="32.951" gradientUnits="userSpaceOnUse"><stop offset="0" stop-color="#6dc7ff"/><stop offset="1" stop-color="#e6abff"/></linearGradient><circle cx="46" cy="32" r="2" fill="url(#jtMFEMUKygUb9qFc8ByC4c)"/><linearGradient id="jtMFEMUKygUb9qFc8ByC4d" x1="36" x2="36" y1=".702" y2="56.889" gradientUnits="userSpaceOnUse"><stop offset="0" stop-color="#1a6dff"/><stop offset="1" stop-color="#c822ff"/></linearGradient><path fill="url(#jtMFEMUKygUb9qFc8ByC4d)" d="M53.029,21.503l-4.432-2.155C47.316,13.513,43.036,8.842,37.5,6.941V6	c0-1.483-1.084-2.71-2.5-2.949V0h-2v3h-2V0h-2v3.051C27.584,3.29,26.5,4.517,26.5,6v0.938C19.821,9.23,15,15.553,15,23v35	c0,0.552,0.447,1,1,1h32c0.553,0,1-0.448,1-1v-5c0-0.552-0.447-1-1-1h-2v-8h2c0.553,0,1-0.448,1-1v-4h0.876	C53.804,39,57,35.804,57,31.876v-0.058v-0.213v-4.137C57,24.787,55.359,22.482,53.029,21.503z M34.339,27.199	C34.867,27.072,35.423,27,36,27c3.309,0,6,2.243,6,5c0,1.918-1.304,3.584-3.21,4.423h-3.185c-2.539,0-4.604-2.065-4.604-4.604	v-0.213C31,29.508,32.418,27.753,34.339,27.199z M53.089,32c0,1.918-1.314,3.584-3.234,4.423h-5.607	c-0.513-0.224-0.986-0.502-1.399-0.833C43.573,34.539,44,33.315,44,32c0-1.312-0.422-2.536-1.143-3.587	C43.944,27.543,45.415,27,47.044,27C50.377,27,53.089,29.243,53.089,32z M50.396,25H35.604C31.963,25,29,27.963,29,31.605v0.213	c0,2.101,0.989,3.971,2.522,5.182h-1.398C27.299,37,25,34.702,25,31.876v-3.753C25,25.298,27.299,23,30.124,23h20.408	c2.242,0,4.085,1.665,4.402,3.819C53.75,25.695,52.154,25,50.396,25z M28.5,6c0-0.551,0.448-1,1-1h5c0.552,0,1,0.449,1,1v1h-7V6z M39,52v-3h5v3H39z M32,52v-3h5v3H32z M29,52c-1.859,0-3.411-1.28-3.858-3H30v3H29z M37,44v3h-5v-3H37z M30,47h-4.858	c0.447-1.72,1.999-3,3.858-3h1V47z M44,47h-5v-3h5V47z M29,42c-3.309,0-6,2.691-6,6s2.691,6,6,6h18v3H17V23	c0-6.528,4.2-12.075,10.034-14.13C27.175,8.946,27.328,9,27.5,9h9c0.175,0,0.331-0.057,0.474-0.136	c5.209,1.837,9.132,6.467,9.889,12.136H30.124C26.196,21,23,24.196,23,28.124v3.753C23,35.804,26.196,39,30.124,39H47v3H29z"/></svg>